<?xml version="1.0" standalone="no"?>
<!DOCTYPE svg PUBLIC "-//W3C//DTD SVG 20010904//EN"
 "http://www.w3.org/TR/2001/REC-SVG-20010904/DTD/svg10.dtd">
<svg version="1.0" xmlns="http://www.w3.org/2000/svg"
 width="1241.000000pt" height="1241.000000pt" viewBox="0 0 1241.000000 1241.000000"
 preserveAspectRatio="xMidYMid meet">
<metadata>
Created by potrace 1.11, written by Peter Selinger 2001-2013
</metadata>
<g transform="translate(0.000000,1241.000000) scale(0.100000,-0.100000)"
fill="#000000" stroke="none">
<path d="M30 11208 c0 -4 37 -67 82 -140 44 -73 93 -153 108 -178 15 -25 128
-211 252 -415 124 -203 262 -431 307 -506 l83 -137 1642 0 c903 1 1665 -3
1694 -7 88 -12 178 -81 227 -175 98 -187 -3 -435 -199 -492 -30 -9 -420 -12
-1493 -12 l-1452 -1 18 -30 c10 -16 138 -228 286 -470 147 -242 287 -471 309
-508 59 -98 57 -95 106 -175 25 -40 50 -81 55 -90 6 -9 23 -38 38 -64 l28 -47
1464 0 c806 0 1475 -3 1487 -7 177 -53 276 -220 232 -392 -25 -95 -86 -165
-183 -210 l-56 -26 -1270 -1 c-698 0 -1271 -4 -1273 -8 -2 -4 34 -69 80 -145
46 -75 87 -145 93 -154 5 -9 38 -63 73 -120 153 -251 265 -435 282 -463 9 -16
81 -134 159 -262 l142 -232 1206 0 1207 0 70 35 c168 84 389 252 520 395 70
77 179 221 228 304 132 221 229 498 255 731 15 132 9 459 -11 554 -1 8 -6 33
-10 55 -54 278 -205 595 -388 817 -55 66 -196 209 -239 243 -112 87 -187 140
-266 187 -51 30 -91 57 -88 60 2 2 7 22 10 44 4 21 8 46 10 54 17 64 24 333
12 443 -50 437 -234 800 -558 1101 -129 120 -373 273 -519 325 -19 7 -44 17
-55 21 -48 20 -207 63 -272 75 -57 9 -86 13 -143 21 -71 10 -4290 12 -4290 2z"/>
<path d="M8247 11213 c-1 0 -31 -4 -67 -7 -294 -27 -583 -149 -826 -347 -435
-355 -665 -818 -668 -1344 -1 -141 9 -298 19 -314 1 -3 6 -24 9 -46 12 -75 55
-220 96 -320 39 -96 139 -282 180 -335 186 -240 324 -368 532 -493 179 -108
421 -196 613 -223 28 -3 59 -9 70 -12 11 -3 590 -7 1286 -8 l1265 -3 59 -22
c71 -26 145 -97 177 -166 31 -67 31 -189 1 -255 -30 -66 -96 -133 -162 -165
l-56 -27 -1265 0 -1265 -1 -98 -155 c-54 -85 -109 -171 -122 -190 -12 -19 -48
-75 -79 -125 -109 -172 -267 -420 -305 -480 -196 -308 -271 -427 -271 -429 0
-4 197 -10 260 -8 30 2 775 4 1655 6 880 1 1618 6 1640 10 237 44 358 81 520
160 582 284 956 877 956 1518 0 155 -11 253 -43 393 -89 389 -310 731 -626
973 -45 34 -84 62 -87 62 -2 0 -23 13 -47 29 -43 29 -165 92 -248 128 -92 41
-277 92 -386 108 -23 3 -59 8 -80 12 -22 3 -597 6 -1279 7 -682 1 -1256 6
-1275 10 -107 25 -202 109 -244 216 -28 69 -25 180 7 252 46 102 142 181 247
203 19 4 596 7 1283 7 l1249 0 34 54 c19 29 34 55 34 58 0 2 19 37 43 78 24
40 56 96 72 123 38 70 258 458 447 788 87 153 158 279 158 280 0 3 -3411 3
-3413 0z"/>
<path d="M1113 7899 c-52 -19 -49 185 -49 -3356 l1 -3291 24 -26 c37 -39 97
-33 123 12 13 24 14 412 14 3324 -1 3284 -1 3298 -21 3317 -24 24 -61 32 -92
20z"/>
<path d="M763 7230 c-55 -22 -52 168 -51 -2683 l0 -2628 21 -25 c12 -13 33
-26 46 -29 31 -6 78 19 86 46 9 28 9 5250 0 5279 -5 17 -61 53 -77 49 -2 0
-13 -4 -25 -9z"/>
<path d="M1800 6762 l-29 -29 2 -2182 2 -2183 24 -19 c33 -27 82 -25 111 6
l23 24 -1 2153 c-1 1184 -2 2165 -2 2179 0 37 -29 69 -68 75 -26 4 -38 0 -62
-24z"/>
<path d="M1463 6610 c-12 -5 -27 -19 -34 -32 -9 -18 -12 -463 -12 -2020 0
-2222 -6 -2038 67 -2052 40 -8 69 6 85 41 12 26 16 3978 5 4021 -6 22 -51 53
-76 51 -7 0 -23 -4 -35 -9z"/>
<path d="M6753 6500 c-12 -5 -27 -19 -33 -31 -9 -16 -12 -479 -11 -1858 0
-1010 0 -1846 1 -1857 0 -35 32 -66 72 -70 30 -4 40 1 62 26 l25 31 0 1856 0
1856 -29 28 c-29 30 -49 34 -87 19z"/>
<path d="M403 6325 c-21 -9 -35 -23 -39 -42 -5 -20 -10 -3360 -5 -3466 1 -10
12 -29 26 -42 32 -33 78 -33 109 0 l23 25 0 1741 0 1741 -21 23 c-28 31 -55
37 -93 20z"/>
<path d="M2169 6326 c-13 -6 -28 -21 -34 -32 -12 -25 -14 -3452 -2 -3472 5 -6
21 -19 38 -27 25 -13 33 -14 63 -1 19 8 38 25 42 38 8 23 13 3402 6 3446 -8
42 -71 69 -113 48z"/>
<path d="M6393 6088 c-13 -6 -26 -20 -30 -32 -9 -27 -10 -2901 -1 -2926 4 -10
21 -26 39 -35 41 -22 86 -5 103 39 10 24 12 373 12 1474 l-1 1444 -28 24 c-30
26 -58 29 -94 12z"/>
<path d="M7085 5925 l-25 -24 0 -1300 0 -1300 23 -25 c12 -14 33 -28 47 -30
36 -5 79 20 86 51 5 20 10 2515 5 2591 -2 25 -49 62 -81 62 -19 0 -40 -9 -55
-25z"/>
<path d="M2502 5840 c-12 -12 -23 -24 -23 -28 -6 -34 -3 -2491 3 -2504 24 -50
82 -63 128 -28 l25 19 1 1248 c1 1314 2 1290 -41 1307 -32 12 -71 6 -93 -14z"/>
<path d="M3939 5618 c-15 -5 -31 -20 -38 -34 -17 -37 -15 -2003 2 -2025 20
-26 54 -39 86 -33 65 13 61 -48 61 1053 0 1000 0 1000 -21 1020 -25 23 -57 30
-90 19z"/>
<path d="M6025 5575 l-25 -24 0 -959 c0 -927 1 -961 19 -983 14 -18 29 -24 61
-24 32 0 47 6 61 24 18 22 19 56 19 981 0 953 0 957 -21 984 -28 35 -80 36
-114 1z"/>
<path d="M8879 5399 c-53 -20 -52 2 -52 -849 l1 -791 23 -25 c30 -32 81 -32
114 0 l24 24 0 796 0 796 -22 24 c-27 30 -54 37 -88 25z"/>
<path d="M10643 5399 c-50 -19 -50 -7 -47 -849 1 -432 2 -788 3 -792 0 -5 10
-17 21 -28 26 -26 80 -26 111 -1 l24 19 1 800 1 800 -21 26 c-23 28 -59 38
-93 25z"/>
<path d="M11685 5383 c-14 -14 -25 -31 -26 -37 0 -6 -1 -362 -1 -791 -1 -583
2 -786 11 -802 17 -32 48 -46 87 -38 64 12 62 -23 61 849 0 785 0 789 -21 812
-32 35 -79 38 -111 7z"/>
<path d="M27 5372 l-22 -24 0 -805 0 -805 24 -19 c43 -35 105 -21 129 29 5 9
8 374 8 810 l-1 794 -28 24 c-35 30 -79 29 -110 -4z"/>
<path d="M7440 5380 c-11 -11 -21 -23 -21 -27 -6 -32 -3 -1587 3 -1602 4 -11
21 -27 37 -36 27 -13 35 -14 65 -1 19 8 38 25 42 38 12 35 12 1579 1 1603 -24
48 -91 61 -127 25z"/>
<path d="M2855 5365 l-25 -24 0 -800 0 -799 29 -25 c36 -30 83 -26 111 11 20
24 20 42 20 819 l0 794 -25 24 c-15 16 -36 25 -55 25 -19 0 -40 -9 -55 -25z"/>
<path d="M3565 5308 l-28 -24 1 -705 c0 -387 1 -710 1 -716 2 -25 41 -53 74
-53 35 1 58 14 74 45 7 13 11 254 11 718 -1 698 -1 699 -22 723 -32 36 -77 41
-111 12z"/>
<path d="M10995 5278 c-46 -25 -45 -9 -45 -654 0 -603 0 -612 21 -638 16 -20
29 -26 59 -26 30 0 43 6 59 26 21 26 21 34 21 638 -1 645 0 629 -47 654 -27
15 -42 15 -68 0z"/>
<path d="M9223 5248 c-12 -6 -26 -22 -32 -37 -6 -17 -10 -236 -9 -609 l1 -584
24 -24 c32 -32 76 -32 108 1 14 13 25 30 26 37 1 18 1 1116 0 1156 -1 25 -8
37 -33 52 -37 22 -53 24 -85 8z"/>
<path d="M7808 5224 c-15 -8 -30 -23 -33 -35 -5 -16 -10 -890 -6 -1127 2 -79
76 -119 132 -71 l24 21 2 584 2 584 -22 25 c-27 30 -64 37 -99 19z"/>
<path d="M5680 5175 l-23 -24 0 -561 0 -561 23 -24 c32 -34 82 -34 115 0 l25
24 0 559 c0 551 0 560 -21 586 -28 36 -86 36 -119 1z"/>
<path d="M4273 5126 l-28 -24 -1 -509 c-1 -539 1 -564 46 -578 12 -4 36 -4 54
-1 64 12 63 4 62 574 l-1 514 -28 24 c-36 30 -68 30 -104 0z"/>
<path d="M8503 5106 l-28 -24 -1 -469 c-1 -487 1 -511 41 -527 45 -17 92 -1
112 39 6 12 9 199 9 487 -1 464 -1 468 -23 489 -31 32 -77 34 -110 5z"/>
<path d="M5004 5100 c-55 -21 -54 -15 -54 -542 l0 -487 23 -24 c35 -39 71 -42
108 -9 l32 28 0 493 0 493 -25 24 c-27 28 -54 35 -84 24z"/>
<path d="M3228 5044 c-15 -8 -32 -22 -37 -32 -4 -9 -9 -209 -9 -444 0 -406 1
-429 19 -452 36 -46 104 -43 130 6 13 25 18 845 5 886 -13 40 -66 58 -108 36z"/>
<path d="M11329 5011 l-24 -19 -1 -359 c-2 -312 0 -362 14 -385 9 -16 21 -29
27 -29 5 -1 22 -3 38 -5 17 -2 37 5 53 20 l26 22 0 345 c0 189 -1 353 -1 365
-3 56 -84 84 -132 45z"/>
<path d="M8173 4989 c-49 -18 -51 -30 -50 -387 0 -307 2 -335 18 -356 10 -13
30 -26 43 -28 36 -7 85 20 93 51 8 34 8 639 0 673 -11 41 -61 63 -104 47z"/>
<path d="M10269 4981 l-24 -19 -2 -314 c-1 -172 0 -327 2 -343 10 -64 106 -83
142 -28 14 21 16 67 17 346 l1 321 -23 28 c-29 34 -78 38 -113 9z"/>
<path d="M9583 4979 c-46 -17 -50 -42 -49 -377 l1 -314 29 -25 c34 -29 77 -26
111 8 19 19 20 33 20 344 0 311 -1 326 -20 344 -24 24 -61 32 -92 20z"/>
<path d="M5336 4964 c-9 -8 -20 -23 -24 -32 -11 -22 -9 -679 2 -710 18 -53
111 -58 138 -8 9 15 13 118 14 361 1 353 -2 384 -41 399 -30 11 -73 6 -89 -10z"/>
<path d="M4637 4924 c-15 -8 -30 -27 -34 -41 -3 -15 -6 -157 -6 -315 0 -312 2
-329 53 -346 32 -12 83 7 98 35 6 11 9 142 8 325 -1 293 -2 308 -21 327 -27
26 -64 32 -98 15z"/>
<path d="M12035 4895 l-25 -24 0 -236 0 -236 25 -24 c15 -16 36 -25 55 -25 19
0 40 9 55 25 l25 24 0 236 0 236 -25 24 c-15 16 -36 25 -55 25 -19 0 -40 -9
-55 -25z"/>
<path d="M9911 4766 c-20 -22 -22 -34 -23 -143 -1 -148 7 -163 82 -178 15 -3
32 5 51 25 29 28 29 30 29 148 0 106 -2 122 -21 146 -28 35 -86 36 -118 2z"/>
</g>
</svg>
